<svg xmlns="http://www.w3.org/2000/svg" viewBox="-3.33 -3.33 70.67 106.67" stroke-linejoin="round" stroke-linecap="round"><rect x="30" y="55" width="4" height="45" rx="0" fill="#c9ced3" stroke="#2b2b2b" stroke-width="1.67"/><rect x="20" y="72" width="24" height="3" rx="0" fill="#c9ced3" stroke="#2b2b2b" stroke-width="1.67"/><rect x="3" y="55" width="4" height="45" rx="0" fill="#c9ced3" stroke="#2b2b2b" stroke-width="1.67"/><rect x="57" y="55" width="4" height="45" rx="0" fill="#c9ced3" stroke="#2b2b2b" stroke-width="1.67"/><polygon points="3,30 3.14,27.06 3.56,24.15 4.25,21.29 5.21,18.52 6.42,15.86 7.89,13.33 9.58,10.97 11.49,8.79 13.6,6.81 15.89,5.06 18.33,3.54 20.9,2.28 23.58,1.29 26.34,0.58 29.16,0.14 32,0 34.84,0.14 37.66,0.58 40.42,1.29 43.1,2.28 45.67,3.54 48.11,5.06 50.4,6.81 52.51,8.79 54.42,10.97 56.11,13.33 57.58,15.86 58.79,18.52 59.75,21.29 60.44,24.15 60.86,27.06 61,30" fill="#5b6770" stroke="#2b2b2b" stroke-width="1.67"/><rect x="3" y="30" width="58" height="25" rx="0" fill="#5b6770" stroke="#2b2b2b" stroke-width="1.67"/></svg>
