<svg xmlns="http://www.w3.org/2000/svg" viewBox="-110.66 -219.73 169.35 325.56" stroke-linejoin="round" stroke-linecap="round"><polygon points="0,9.09 51.96,39.09 -51.96,99.09 -103.92,69.09" fill="#000" fill-opacity="0.12"/><polygon points="-103.92,-153 -51.96,-123 -51.96,90 -103.92,60" fill="#4e5960" stroke="#2b2b2b" stroke-width="3.37"/><polygon points="-100.46,-145 -55.43,-119 -55.43,82 -100.46,56 -100.46,-145" fill="none" stroke="#e4dfd6" stroke-width="1.68"/><polyline points="-96.99,-110.83 -58.89,-88.83" fill="none" stroke="#e4dfd6" stroke-width="1.68"/><polyline points="-96.99,-78.67 -58.89,-56.67" fill="none" stroke="#e4dfd6" stroke-width="1.68"/><polyline points="-96.99,-46.5 -58.89,-24.5" fill="none" stroke="#e4dfd6" stroke-width="1.68"/><polyline points="-96.99,-14.33 -58.89,7.67" fill="none" stroke="#e4dfd6" stroke-width="1.68"/><polyline points="-96.99,17.83 -58.89,39.83" fill="none" stroke="#e4dfd6" stroke-width="1.68"/><polygon points="-83.14,-131 -72.75,-125 -72.75,-122.5 -83.14,-128.5 -83.14,-131" fill="#2f6fb0" stroke="none" stroke-width="1.68"/><polygon points="51.96,-183 -51.96,-123 -51.96,90 51.96,30" fill="#424a51" stroke="#2b2b2b" stroke-width="3.37"/><polygon points="0,-213 51.96,-183 -51.96,-123 -103.92,-153" fill="#5b6770" stroke="#2b2b2b" stroke-width="3.37"/><polygon points="0,-207 41.57,-183 -51.96,-129 -93.53,-153 0,-207" fill="none" stroke="#e4dfd6" stroke-width="1.68"/><polygon points="7.79,-199.5 28.58,-187.5 25.11,-185.5 4.33,-197.5 7.79,-199.5" fill="#e4dfd6" stroke="#e4dfd6" stroke-width="1.68"/><polygon points="-77.08,-150.5 -56.29,-138.5 -59.76,-136.5 -80.54,-148.5 -77.08,-150.5" fill="#e4dfd6" stroke="#e4dfd6" stroke-width="1.68"/></svg>
