<svg xmlns="http://www.w3.org/2000/svg" viewBox="-101.82 -206.56 177.66 316.96" stroke-linejoin="round" stroke-linecap="round"><polygon points="0,8.85 69.28,48.85 -25.98,103.85 -95.26,63.85" fill="#000" fill-opacity="0.12"/><polygon points="-95.26,-145 -25.98,-105 -25.98,95 -95.26,55" fill="#4e5960" stroke="#2b2b2b" stroke-width="3.28"/><polygon points="-91.8,-137 -29.44,-101 -29.44,87 -91.8,51 -91.8,-137" fill="none" stroke="#e4dfd6" stroke-width="1.64"/><polyline points="-88.33,-105 -32.91,-73" fill="none" stroke="#e4dfd6" stroke-width="1.64"/><polyline points="-88.33,-75 -32.91,-43" fill="none" stroke="#e4dfd6" stroke-width="1.64"/><polyline points="-88.33,-45 -32.91,-13" fill="none" stroke="#e4dfd6" stroke-width="1.64"/><polyline points="-88.33,-15 -32.91,17" fill="none" stroke="#e4dfd6" stroke-width="1.64"/><polyline points="-88.33,15 -32.91,47" fill="none" stroke="#e4dfd6" stroke-width="1.64"/><polygon points="-65.82,-118 -55.43,-112 -55.43,-109.5 -65.82,-115.5 -65.82,-118" fill="#2f6fb0" stroke="none" stroke-width="1.64"/><polygon points="69.28,-160 -25.98,-105 -25.98,95 69.28,40" fill="#424a51" stroke="#2b2b2b" stroke-width="3.28"/><polygon points="0,-200 69.28,-160 -25.98,-105 -95.26,-145" fill="#5b6770" stroke="#2b2b2b" stroke-width="3.28"/><polygon points="0,-194 58.89,-160 -25.98,-111 -84.87,-145 0,-194" fill="none" stroke="#e4dfd6" stroke-width="1.64"/><polygon points="16.45,-181.5 37.24,-169.5 33.77,-167.5 12.99,-179.5 16.45,-181.5" fill="#e4dfd6" stroke="#e4dfd6" stroke-width="1.64"/><polygon points="-59.76,-137.5 -38.97,-125.5 -42.44,-123.5 -63.22,-135.5 -59.76,-137.5" fill="#e4dfd6" stroke="#e4dfd6" stroke-width="1.64"/></svg>
