<svg xmlns="http://www.w3.org/2000/svg" viewBox="-68.79 -106.83 124.58 183.34" stroke-linejoin="round" stroke-linecap="round"><polygon points="0,5.17 51.96,35.17 -12.99,72.67 -64.95,42.67" fill="#000" fill-opacity="0.12"/><polygon points="0.87,-95.5 44.17,-70.5 44.17,-55.5 0.87,-80.5" fill="#adb1b5" stroke="#2b2b2b" stroke-width="1.92"/><polygon points="47.63,-72.5 44.17,-70.5 44.17,-55.5 47.63,-57.5" fill="#919498" stroke="#2b2b2b" stroke-width="1.92"/><polygon points="4.33,-97.5 47.63,-72.5 44.17,-70.5 0.87,-95.5" fill="#c9ced3" stroke="#2b2b2b" stroke-width="1.92"/><polygon points="-14.72,-8.5 -9.53,-5.5 -9.53,14.5 -14.72,11.5" fill="#adb1b5" stroke="#2b2b2b" stroke-width="1.92"/><polygon points="4.33,-13.5 -9.53,-5.5 -9.53,14.5 4.33,6.5" fill="#919498" stroke="#2b2b2b" stroke-width="1.92"/><polygon points="-0.87,-16.5 4.33,-13.5 -9.53,-5.5 -14.72,-8.5" fill="#c9ced3" stroke="#2b2b2b" stroke-width="1.92"/><polygon points="26.85,15.5 32.04,18.5 32.04,38.5 26.85,35.5" fill="#adb1b5" stroke="#2b2b2b" stroke-width="1.92"/><polygon points="45.9,10.5 32.04,18.5 32.04,38.5 45.9,30.5" fill="#919498" stroke="#2b2b2b" stroke-width="1.92"/><polygon points="40.7,7.5 45.9,10.5 32.04,18.5 26.85,15.5" fill="#c9ced3" stroke="#2b2b2b" stroke-width="1.92"/><polygon points="-59.76,12.5 -12.99,39.5 -12.99,64.5 -59.76,37.5" fill="#4e5960" stroke="#2b2b2b" stroke-width="1.92"/><polygon points="32.04,13.5 -12.99,39.5 -12.99,64.5 32.04,38.5" fill="#424a51" stroke="#2b2b2b" stroke-width="1.92"/><polygon points="-14.72,-13.5 32.04,13.5 -12.99,39.5 -59.76,12.5" fill="#5b6770" stroke="#2b2b2b" stroke-width="1.92"/><polygon points="-59.76,-57.5 -12.99,-30.5 -12.99,39.5 -59.76,12.5" fill="#4e5960" stroke="#2b2b2b" stroke-width="1.92"/><polygon points="44.17,-63.5 -12.99,-30.5 -12.99,39.5 44.17,6.5" fill="#424a51" stroke="#2b2b2b" stroke-width="1.92"/><polygon points="-2.6,-90.5 44.17,-63.5 -12.99,-30.5 -59.76,-57.5" fill="#5b6770" stroke="#2b2b2b" stroke-width="1.92"/><polygon points="-64.95,-67.5 -12.99,-37.5 -12.99,-27.5 -64.95,-57.5" fill="#4e5960" stroke="#2b2b2b" stroke-width="1.92"/><polygon points="48.5,-73 -12.99,-37.5 -12.99,-27.5 48.5,-63" fill="#424a51" stroke="#2b2b2b" stroke-width="1.92"/><polygon points="-3.46,-103 48.5,-73 -12.99,-37.5 -64.95,-67.5" fill="#5b6770" stroke="#2b2b2b" stroke-width="1.92"/><polyline points="-53.69,-70 -8.66,-44" fill="none" stroke="#e4dfd6" stroke-width="0.96"/></svg>
