<svg xmlns="http://www.w3.org/2000/svg" viewBox="-65.43 -94.81 226.13 231.12" stroke-linejoin="round" stroke-linecap="round"><polygon points="0,6.5 155.88,96.5 95.26,131.5 -60.62,41.5" fill="#000" fill-opacity="0.12"/><polygon points="-47.63,-52.5 101.32,33.5 101.32,117.5 -47.63,31.5" fill="#adb1b5" stroke="#2b2b2b" stroke-width="2.41"/><polygon points="149.82,5.5 101.32,33.5 101.32,117.5 149.82,89.5" fill="#919498" stroke="#2b2b2b" stroke-width="2.41"/><polygon points="0.87,-80.5 149.82,5.5 101.32,33.5 -47.63,-52.5" fill="#c9ced3" stroke="#2b2b2b" stroke-width="2.41"/><polygon points="-53.69,-59 102.19,31 102.19,37 -53.69,-53" fill="#bba88c" stroke="#2b2b2b" stroke-width="2.41"/><polygon points="155.88,0 102.19,31 102.19,37 155.88,6" fill="#9c8c75" stroke="#2b2b2b" stroke-width="2.41"/><polygon points="0,-90 155.88,0 102.19,31 -53.69,-59" fill="#d9c3a3" stroke="#2b2b2b" stroke-width="2.41"/><polyline points="-13.42,-82.25 142.46,7.75" fill="none" stroke="#8a857c" stroke-width="1.2"/><polyline points="-26.85,-74.5 129.04,15.5" fill="none" stroke="#8a857c" stroke-width="1.2"/><polyline points="-40.27,-66.75 115.61,23.25" fill="none" stroke="#8a857c" stroke-width="1.2"/><polygon points="-48.5,-46 -25.98,-33 -25.98,-17 -48.5,-30" fill="#adb1b5" stroke="#2b2b2b" stroke-width="2.41"/><polygon points="-19.05,-37 -25.98,-33 -25.98,-17 -19.05,-21" fill="#919498" stroke="#2b2b2b" stroke-width="2.41"/><polygon points="-41.57,-50 -19.05,-37 -25.98,-33 -48.5,-46" fill="#c9ced3" stroke="#2b2b2b" stroke-width="2.41"/><polyline points="-30.31,-43.5 -37.24,-39.5" fill="none" stroke="#8a857c" stroke-width="1.2"/></svg>
